{
  "accessors": [
    {
      "bufferView": 2,
      "componentType": 5126,
      "count": 2276,
      "max": [
        3.95607852935791,
        8.054902076721191,
        1.5801583528518677
      ],
      "min": [
        -3.95607852935791,
        0.004037069156765938,
        -1.5801583528518677
      ],
      "type": "VEC3"
    },
    {
      "bufferView": 2,
      "byteOffset": 27312,
      "componentType": 5126,
      "count": 2276,
      "max": [
        1.0,
        1.0,
        1.0
      ],
      "min": [
        -1.0,
        -1.0,
        -1.0
      ],
      "type": "VEC3"
    },
    {
      "bufferView": 1,
      "componentType": 5126,
      "count": 2276,
      "max": [
        0.5492898225784302,
        0.26008373498916626
      ],
      "min": [
        0.0005434229969978333,
        0.0005627274513244629
      ],
      "type": "VEC2"
    },
    {
      "bufferView": 1,
      "byteOffset": 18208,
      "componentType": 5126,
      "count": 2276,
      "max": [
        0.5492898225784302,
        0.26008373498916626
      ],
      "min": [
        0.0005434229969978333,
        0.0005627274513244629
      ],
      "type": "VEC2"
    },
    {
      "bufferView": 1,
      "byteOffset": 36416,
      "componentType": 5126,
      "count": 2276,
      "max": [
        0.5492898225784302,
        0.26008373498916626
      ],
      "min": [
        0.0005434229969978333,
        0.0005627274513244629
      ],
      "type": "VEC2"
    },
    {
      "bufferView": 0,
      "componentType": 5125,
      "count": 10950,
      "type": "SCALAR"
    }
  ],
  "asset": {
    "extras": {
      "author": "andre.arancibia (https://sketchfab.com/andre.arancibia)",
      "license": "CC-BY-4.0 (http://creativecommons.org/licenses/by/4.0/)",
      "source": "https://sketchfab.com/3d-models/r-letter-e49c4bbbf5194ae48c7171a2ff3af6f0",
      "title": "R Letter"
    },
    "generator": "Sketchfab-15.22.0",
    "version": "2.0"
  },
  "bufferViews": [
    {
      "buffer": 0,
      "byteLength": 43800,
      "name": "floatBufferViews",
      "target": 34963
    },
    {
      "buffer": 0,
      "byteLength": 54624,
      "byteOffset": 43800,
      "byteStride": 8,
      "name": "floatBufferViews",
      "target": 34962
    },
    {
      "buffer": 0,
      "byteLength": 54624,
      "byteOffset": 98424,
      "byteStride": 12,
      "name": "floatBufferViews",
      "target": 34962
    }
  ],
  "buffers": [
    {
      "byteLength": 153048,
      "uri": "scene.bin"
    }
  ],
  "extensionsRequired": [
    "KHR_materials_pbrSpecularGlossiness"
  ],
  "extensionsUsed": [
    "KHR_materials_pbrSpecularGlossiness"
  ],
  "images": [
    {
      "uri": "textures/material_diffuse.png"
    },
    {
      "uri": "textures/material_specularGlossiness.png"
    }
  ],
  "materials": [
    {
      "doubleSided": true,
      "extensions": {
        "KHR_materials_pbrSpecularGlossiness": {
          "diffuseFactor": [
            1.0,
            1.0,
            1.0,
            1.0
          ],
          "diffuseTexture": {
            "index": 0
          },
          "glossinessFactor": 1.0,
          "specularFactor": [
            1.0,
            1.0,
            1.0
          ],
          "specularGlossinessTexture": {
            "index": 1
          }
        }
      },
      "name": "material"
    }
  ],
  "meshes": [
    {
      "name": "Object_0",
      "primitives": [
        {
          "attributes": {
            "NORMAL": 1,
            "POSITION": 0,
            "TEXCOORD_0": 2,
            "TEXCOORD_1": 3,
            "TEXCOORD_2": 4
          },
          "indices": 5,
          "material": 0,
          "mode": 4
        }
      ]
    }
  ],
  "nodes": [
    {
      "children": [
        1
      ],
      "matrix": [
        1.0,
        0.0,
        0.0,
        0.0,
        0.0,
        2.220446049250313e-16,
        -1.0,
        0.0,
        0.0,
        1.0,
        2.220446049250313e-16,
        0.0,
        0.0,
        0.0,
        0.0,
        1.0
      ],
      "name": "Sketchfab_model"
    },
    {
      "children": [
        2
      ],
      "name": "root"
    },
    {
      "children": [
        3
      ],
      "matrix": [
        1.0,
        0.0,
        0.0,
        0.0,
        0.0,
        2.220446049250313e-16,
        1.0,
        0.0,
        0.0,
        -1.0,
        2.220446049250313e-16,
        0.0,
        0.0,
        0.0,
        0.0,
        1.0
      ],
      "name": "GLTF_SceneRootNode"
    },
    {
      "children": [
        4
      ],
      "name": "root_0"
    },
    {
      "children": [
        5
      ],
      "matrix": [
        0.06359565258026123,
        0.0,
        0.0,
        0.0,
        0.0,
        0.06359565258026123,
        0.0,
        0.0,
        0.0,
        0.0,
        0.06359565258026123,
        0.0,
        -0.09817904233932495,
        -0.14791874587535858,
        0.21027785539627075,
        1.0
      ],
      "name": "node_id128_1"
    },
    {
      "mesh": 0,
      "name": "Object_5"
    }
  ],
  "samplers": [
    {
      "magFilter": 9729,
      "minFilter": 9987,
      "wrapS": 10497,
      "wrapT": 10497
    }
  ],
  "scene": 0,
  "scenes": [
    {
      "name": "Sketchfab_Scene",
      "nodes": [
        0
      ]
    }
  ],
  "textures": [
    {
      "sampler": 0,
      "source": 0
    },
    {
      "sampler": 0,
      "source": 1
    }
  ]
}
